<?xml version="1.0" encoding="UTF-8"?>
<svg version="1.1" xmlns="http://www.w3.org/2000/svg" width="504" height="282">
<path d="M0 0 C166.32 0 332.64 0 504 0 C504 93.06 504 186.12 504 282 C337.68 282 171.36 282 0 282 C0 188.94 0 95.88 0 0 Z " fill="#FDFDFD" transform="translate(0,0)"/>
<path d="M0 0 C6.24596935 5.92566323 8.69021862 10.38179668 8.9206543 18.87280273 C9.06620665 45.3527835 0.04176697 69.62227938 -8.5625 94.3125 C-9.23643421 96.27057291 -9.90970349 98.22887492 -10.58203125 100.1875 C-12.96032899 107.08044375 -15.41413314 113.93984494 -17.97607422 120.76660156 C-37.88012503 172.8346008 -37.88012503 172.8346008 -47.5625 227.3125 C-47.60487793 227.95928711 -47.64725586 228.60607422 -47.69091797 229.27246094 C-48.29211998 239.81470042 -47.45499823 249.47375266 -41.4375 258.5 C-37.72940523 262.08449161 -34.32148944 261.4451533 -29.39453125 261.42578125 C-27.02610207 261.33104408 -24.88039146 261.07666622 -22.5625 260.625 C-19.5625 260.3125 -19.5625 260.3125 -17.625 261.4375 C-16.12829307 264.07874752 -15.92076151 265.31772039 -16.5625 268.3125 C-21.55741973 273.30741973 -26.13881535 275.59260999 -33.3125 275.6875 C-42.09158901 275.50460231 -48.38362044 272.29877066 -54.7734375 266.3671875 C-63.11900109 256.7825446 -63.95349221 245.43459534 -63.9375 233.3125 C-63.93728851 232.65010315 -63.93707703 231.9877063 -63.93685913 231.30523682 C-63.89677889 218.66153501 -62.37586183 206.63889744 -59.5625 194.3125 C-59.36994629 193.44447754 -59.17739258 192.57645508 -58.97900391 191.68212891 C-56.60649831 181.12774937 -53.55369361 170.9017692 -50.03125 160.6796875 C-48.56956798 156.40693213 -47.30062143 152.09191896 -46.0625 147.75 C-43.23132595 137.88573882 -39.80580387 128.24238808 -36.17553711 118.64624023 C-34.48621048 114.14559524 -32.90100112 109.61138016 -31.32421875 105.0703125 C-29.19158369 98.94925225 -27.04173261 92.83520781 -24.85134888 86.73455811 C-23.65224936 83.39279194 -22.46221432 80.04782668 -21.27270508 76.70263672 C-20.67249308 75.02099844 -20.06862813 73.34065966 -19.46118164 71.66162109 C-15.24627162 59.99702399 -12.00562956 48.46988431 -9.5625 36.3125 C-9.15035297 34.49896693 -8.7350784 32.68613082 -8.3125 30.875 C-7.1092857 24.68704076 -5.96818219 17.70397672 -9.5625 12.3125 C-18.02754413 11.28536075 -25.10106782 16.97732144 -31.5 21.9375 C-44.22741556 32.76038143 -56.28575602 44.82076457 -66.265625 58.234375 C-68.42062563 61.12236904 -70.67600904 63.8724717 -73 66.625 C-110.44022083 112.26767204 -142.85354441 169.24562184 -163.31689453 224.53271484 C-163.6879834 225.51191895 -164.05907227 226.49112305 -164.44140625 227.5 C-164.7566626 228.35980469 -165.07191895 229.21960938 -165.39672852 230.10546875 C-166.75509314 232.67711613 -168.10035171 233.8014582 -170.5625 235.3125 C-173.42749837 235.87340179 -175.58807199 235.59577886 -178.5625 235.3125 C-180.63600396 233.78938505 -181.44264864 232.90950398 -181.95214844 230.37158203 C-181.87107124 224.54317733 -180.73300085 219.66998963 -178.8125 214.1875 C-178.25377347 212.51262929 -177.6978107 210.83683424 -177.14453125 209.16015625 C-176.87205566 208.33918457 -176.59958008 207.51821289 -176.31884766 206.67236328 C-175.25385901 203.3495162 -174.37080324 200.00428995 -173.5 196.625 C-169.99390414 183.07788617 -165.4469182 169.82402833 -161 156.5625 C-160.4816226 155.0131518 -159.96339683 153.46375286 -159.4453125 151.91430664 C-158.63975338 149.50516091 -157.83407795 147.09605482 -157.02780151 144.68714905 C-155.09540002 138.91249152 -153.17254494 133.13471205 -151.25390625 127.35546875 C-150.44922489 124.93360873 -149.64443681 122.51178419 -148.83963013 120.08996582 C-148.328462 118.55082082 -147.81776743 117.01151846 -147.30758667 115.4720459 C-142.83726798 101.98560463 -142.83726798 101.98560463 -140.39453125 95.39453125 C-138.59535215 90.51058778 -137.12851774 85.57927945 -135.75 80.5625 C-133.86999891 73.82027965 -131.89576865 67.12109444 -129.79638672 60.44384766 C-125.29018192 46.04643976 -121.85775684 32.55583351 -122.5625 17.3125 C-133.0108811 16.62885456 -140.18766253 22.47979501 -147.828125 29.0546875 C-150.58038337 31.51302769 -153.2327315 34.0652396 -155.86328125 36.65283203 C-157.62651848 38.37502839 -159.42029952 40.06075634 -161.21875 41.74609375 C-176.57613489 56.35273511 -193.19612875 75.48652805 -197.08984375 96.86328125 C-197.5625 99.3125 -197.5625 99.3125 -198.5625 100.3125 C-200.89547433 100.35342937 -203.22955225 100.35491723 -205.5625 100.3125 C-208.70833398 95.20051977 -209.37263692 91.14916825 -208.5625 85.3125 C-204.09458061 67.60039099 -191.3206366 53.05511621 -179.09375 40.03125 C-176.95434482 37.73337037 -174.9023101 35.39591193 -172.875 33 C-169.41016335 29.03089134 -165.63489295 25.64804641 -161.5625 22.3125 C-161.05799316 21.89564941 -160.55348633 21.47879883 -160.03369141 21.04931641 C-136.42112219 1.63331021 -136.42112219 1.63331021 -120.80078125 1.86328125 C-115.83998296 2.55144989 -112.90233514 4.68075125 -109.5625 8.3125 C-103.20360688 16.92777455 -104.68444244 29.92305256 -106.17578125 40.03125 C-109.90086248 61.45653936 -117.75015661 82.11540547 -124.88671875 102.578125 C-127.89755407 111.23469988 -130.79722932 119.92755386 -133.6875 128.625 C-133.93360016 129.36525421 -134.17970032 130.10550842 -134.43325806 130.86819458 C-135.81175127 135.01560822 -137.18811638 139.16372236 -138.5625 143.3125 C-138.30259277 142.8270874 -138.04268555 142.3416748 -137.77490234 141.84155273 C-122.4205376 113.27923964 -105.40442175 85.56653746 -85.09521484 60.2421875 C-83.2566794 57.92747196 -81.4751012 55.5737012 -79.69775391 53.21191406 C-29.12293921 -13.79507647 -29.12293921 -13.79507647 0 0 Z " fill="#060606" transform="translate(209.5625,3.6875)"/>
<path d="M0 0 C2.8647561 0.07842327 4.53587473 0.27337183 7.1875 1.4375 C9.25842257 4.13870335 8.86888163 5.95598473 8.625 9.3125 C7.65380859 12.23974609 7.65380859 12.23974609 6.2734375 15.3359375 C5.759021 16.50511719 5.24460449 17.67429687 4.71459961 18.87890625 C4.14310108 20.14845311 3.57156684 21.41798389 3 22.6875 C2.40974181 24.0216286 1.82065303 25.35627512 1.23266602 26.69140625 C-0.31546922 30.20112716 -1.87526608 33.70553488 -3.43780518 37.2088623 C-23.53974699 82.32989952 -40.54317361 128.17650629 -55.375 175.3125 C-54.79234375 174.343125 -54.2096875 173.37375 -53.609375 172.375 C-28.60842486 131.2846369 -28.60842486 131.2846369 -14.375 126.3125 C-9.13855411 125.34853648 -5.60438311 125.61957497 -0.9375 128.25 C5.803588 136.30642225 5.07242765 146.25096851 5.125 156.25 C4.85472053 169.65289158 4.85472053 169.65289158 8.625 182.3125 C11.42900826 184.62343216 11.42900826 184.62343216 14.52734375 184.109375 C28.91606254 180.40786348 40.83708535 163.52266503 49.3828125 152.2109375 C52.82810702 147.7572641 52.82810702 147.7572641 54.625 146.3125 C57.96692692 146.55703124 59.23043557 146.91793557 61.625 149.3125 C62.43687269 156.9778434 57.93164494 161.18048549 53.375 166.87451172 C29.44794201 196.43617823 29.44794201 196.43617823 12.15625 198.625 C6.3961482 198.90259527 2.03970582 198.16410559 -2.375 194.3125 C-14.02981714 181.23182758 -11.87834558 160.69402022 -12.375 144.3125 C-24.62649417 147.02925935 -34.51468074 166.26487557 -40.88525391 176.20263672 C-44.53327534 181.98136093 -48.08635354 187.81390438 -51.5859375 193.68359375 C-52.11574219 194.57208008 -52.64554688 195.46056641 -53.19140625 196.37597656 C-54.1968469 198.06872032 -55.1972347 199.76448046 -56.19140625 201.46386719 C-64.37271084 215.31135542 -64.37271084 215.31135542 -68.375 217.3125 C-74.70660992 217.77298072 -74.70660992 217.77298072 -77.0703125 216.14453125 C-80.29744843 211.61301403 -78.84034948 204.44276554 -78.06591797 199.23339844 C-75.99200477 187.584522 -72.32128169 176.44101437 -68.375 165.3125 C-69.11878906 165.70179688 -69.86257813 166.09109375 -70.62890625 166.4921875 C-81.97441126 172.30558676 -93.65518283 177.30681433 -105.375 182.3125 C-104.89160156 183.61960938 -104.89160156 183.61960938 -104.3984375 184.953125 C-102.04003642 192.69444151 -102.61213345 200.65962247 -106 208 C-111.60857886 217.43260989 -120.86223251 222.3185179 -131.11328125 225.45703125 C-135.91789754 226.58134574 -140.64729742 226.64332663 -145.5625 226.625 C-146.43841797 226.64111328 -147.31433594 226.65722656 -148.21679688 226.67382812 C-153.09405687 226.67752582 -156.43635493 226.50886196 -160.375 223.3125 C-163.57690946 219.59136198 -165.17517723 216.46671118 -164.87890625 211.44921875 C-162.52532031 201.46928458 -152.64302012 194.26122139 -144.45849609 189.10961914 C-141.78634725 187.47188745 -139.08397056 185.88837476 -136.375 184.3125 C-135.61058594 183.85359375 -134.84617187 183.3946875 -134.05859375 182.921875 C-129.65757042 180.3125 -129.65757042 180.3125 -127.375 180.3125 C-130.23537763 175.79825473 -133.37756366 171.86019176 -137 167.9375 C-137.48984375 167.39222656 -137.9796875 166.84695312 -138.484375 166.28515625 C-139.73729153 164.91927184 -141.05184088 163.61045609 -142.375 162.3125 C-143.035 162.3125 -143.695 162.3125 -144.375 162.3125 C-145.49560902 163.76960043 -146.54338034 165.28269565 -147.5625 166.8125 C-158.46643595 182.17713701 -172.93933197 197.02277459 -189.375 206.3125 C-190.10074219 206.74691406 -190.82648438 207.18132812 -191.57421875 207.62890625 C-198.1470528 211.11578864 -205.08724295 211.31982219 -212.375 210.3125 C-217.72561789 208.18852161 -220.58185401 204.25059355 -223.375 199.3125 C-226.67297246 177.87567899 -216.83959228 154.25802511 -207.125 135.6875 C-206.80821289 135.07817627 -206.49142578 134.46885254 -206.16503906 133.84106445 C-204.34924795 130.53863009 -202.67905321 128.18566402 -199.375 126.3125 C-195.51899755 125.89935688 -193.27528661 125.75847747 -189.9375 127.8125 C-189.1640625 128.555 -189.1640625 128.555 -188.375 129.3125 C-188.82750185 135.77159896 -190.53659686 140.29484171 -193.5 146 C-197.00740174 153.05639044 -199.90912648 160.13982975 -202.375 167.625 C-202.6652002 168.5018042 -202.95540039 169.3786084 -203.25439453 170.28198242 C-205.34159585 176.78761869 -206.51710214 182.75849176 -206.5 189.625 C-206.50257813 190.67300781 -206.50515625 191.72101563 -206.5078125 192.80078125 C-206.65897655 195.25145102 -206.65897655 195.25145102 -205.375 196.3125 C-196.3208195 196.3125 -189.93865216 192.43865919 -183.296875 186.43359375 C-182.13056524 185.25967762 -180.98085229 184.06894605 -179.8515625 182.859375 C-178.375 181.3125 -178.375 181.3125 -175.875 179.375 C-172.25911421 176.39189422 -169.39359944 172.88760101 -166.375 169.3125 C-165.45730979 168.2341379 -164.53932077 167.15603004 -163.62109375 166.078125 C-160.86144156 162.83188079 -158.10801659 159.58123807 -155.375 156.3125 C-154.61316406 155.49523437 -153.85132813 154.67796875 -153.06640625 153.8359375 C-150.89288143 150.59321918 -150.97397895 148.49780001 -151 144.625 C-150.60397336 136.39453336 -148.24956489 131.14877868 -142.3984375 125.35546875 C-131.22443792 116.03025819 -117.98045017 111.18024967 -103.5625 110.8125 C-102.48609253 110.76633545 -102.48609253 110.76633545 -101.38793945 110.71923828 C-97.44745207 110.71831986 -94.94277823 111.27423651 -91.92578125 113.71875 C-88.79657217 116.90067163 -88.4463186 117.48520421 -88.0625 121.9375 C-88.1775438 127.71060725 -90.12820403 132.06570403 -94.2109375 136.1484375 C-97.42530582 138.77165763 -99.59931947 140.19758437 -103.75 140.8125 C-106.375 140.3125 -106.375 140.3125 -108.375 138.3125 C-108.8125 136 -108.8125 136 -108.375 133.3125 C-106.75050757 131.60470027 -105.08279973 129.93699243 -103.375 128.3125 C-102.6909064 126.2298394 -102.6909064 126.2298394 -102.375 124.3125 C-114.1133583 127.14589683 -126.24353712 130.81090052 -134.375 140.3125 C-134.55269381 150.08565942 -126.61971899 156.67048241 -120.375 163.3125 C-117.74024585 166.01257863 -115.07549396 168.67823068 -112.375 171.3125 C-103.32563236 168.69482981 -95.10904311 164.45945112 -86.6875 160.3125 C-85.18970134 159.58022126 -83.69165616 158.84844651 -82.19335938 158.1171875 C-78.2499276 156.19026811 -74.31038077 154.25581811 -70.375 152.3125 C-69.26157227 151.7983252 -68.14814453 151.28415039 -67.00097656 150.75439453 C-61.66994536 147.82718458 -61.0504162 140.825739 -59.375 135.3125 C-58.99738567 134.01453603 -58.62299182 132.71563045 -58.25195312 131.41577148 C-55.36157448 121.2928678 -52.05206132 111.38551509 -48.4375 101.5 C-48.16076447 100.73914093 -47.88402893 99.97828186 -47.59890747 99.19436646 C-11.51850391 0.05740118 -11.51850391 0.05740118 0 0 Z " fill="#060606" transform="translate(420.375,7.6875)"/>
<path d="M0 0 C67.65 0 135.3 0 205 0 C205 0.66 205 1.32 205 2 C203.44152344 2.12955078 203.44152344 2.12955078 201.8515625 2.26171875 C181.95415215 4.15727935 169.05326819 15.5713215 155 29 C153.7934375 30.1446875 153.7934375 30.1446875 152.5625 31.3125 C146.88226656 36.83494917 141.92695759 42.80565783 137 49 C136.08708609 50.12333025 135.17297264 51.24568646 134.2578125 52.3671875 C123.13981526 66.0446968 112.52844439 80.16457393 103 95 C102.52159668 95.73428223 102.04319336 96.46856445 101.55029297 97.22509766 C92.35624931 111.33966241 83.80384876 125.74785424 75.49536133 140.39477539 C74.02872775 142.9499504 72.52428906 145.47887429 71 148 C70 146 70 146 70.55395508 143.81951904 C70.87259521 142.91324768 71.19123535 142.00697632 71.51953125 141.07324219 C71.87740723 140.04326111 72.2352832 139.01328003 72.60400391 137.9520874 C73.00280762 136.82836731 73.40161133 135.70464722 73.8125 134.546875 C74.21903809 133.38109924 74.62557617 132.21532349 75.04443359 131.01422119 C76.13470118 127.89062121 77.23109705 124.76932142 78.33099365 121.64910889 C80.27197416 116.13924588 82.19934495 110.62460895 84.125 105.109375 C84.54259583 103.91361343 84.96019165 102.71785187 85.39044189 101.4858551 C90.82622053 85.845817 96.10876395 70.10539367 100 54 C100.2990625 52.80632813 100.598125 51.61265625 100.90625 50.3828125 C102.50468498 43.3822593 103.29520522 36.72999232 103.375 29.5625 C103.39578613 28.46264771 103.39578613 28.46264771 103.41699219 27.34057617 C103.3645316 21.26412126 102.13305199 15.81604893 98.4140625 10.90625 C93.34635032 6.92289545 88.90392204 6.03342767 82.49609375 6.359375 C67.97069421 9.02101246 55.72459215 20.26667051 45.2421875 29.9453125 C43.30893687 31.71689757 41.33710666 33.39782341 39.3125 35.0625 C35.44986804 38.3605245 32.26894457 42.12569532 29 46 C28.16339844 46.94875 27.32679687 47.8975 26.46484375 48.875 C21.44156673 54.6082144 16.80134862 60.47216465 12.5625 66.8125 C11.96151489 67.70884155 11.96151489 67.70884155 11.34838867 68.62329102 C4.68275489 78.82780105 1.59936893 87.69172318 2 100 C1.34 100 0.68 100 0 100 C0 67 0 34 0 0 Z " fill="#FCFCFB" transform="translate(0,0)"/>
<path d="M0 0 C104.77559548 -1.63276209 104.77559548 -1.63276209 125.14294434 12.91534424 C127.06514733 15.88602159 127.16771974 17.57487544 126.51794434 21.04034424 C122.21559656 25.22947233 119.43574881 26.1485763 113.49060059 26.27081299 C111.51794434 26.04034424 111.51794434 26.04034424 108.51794434 24.04034424 C108.33044434 20.91534424 108.33044434 20.91534424 108.51794434 18.04034424 C102.42883855 17.15397791 96.33779982 16.28223308 90.24450684 15.42510986 C88.59309139 15.19206628 86.94196031 14.95697813 85.29138184 14.71807861 C65.88191805 11.92083236 46.28121434 11.83421731 26.70544434 11.85284424 C25.07392929 11.85325211 25.07392929 11.85325211 23.40945435 11.85366821 C-9.43469801 11.89088117 -42.20336681 12.95792139 -74.85021973 16.65802002 C-78.78406768 17.07213711 -82.71892498 17.40966386 -86.66174316 17.72393799 C-102.99913676 19.03611152 -119.14325681 20.8104818 -135.33068848 23.41485596 C-142.09299159 24.49236635 -148.62353336 25.50780476 -155.48205566 25.04034424 C-157.60705566 23.35284424 -157.60705566 23.35284424 -158.48205566 21.04034424 C-158.48205566 18.54034424 -158.48205566 18.54034424 -157.48205566 16.04034424 C-153.93646777 12.66502357 -151.37274098 11.48139033 -146.54064941 10.91534424 C-145.34109619 10.76831055 -144.14154297 10.62127686 -142.90563965 10.4697876 C-141.57704199 10.32574228 -140.24834312 10.18262805 -138.91955566 10.04034424 C-137.50419132 9.87771877 -136.08891023 9.7143674 -134.67370605 9.550354 C-129.94657526 9.01292536 -125.2151423 8.52212973 -120.48205566 8.04034424 C-119.65334961 7.95548767 -118.82464355 7.8706311 -117.9708252 7.78320312 C-88.52645952 4.78520822 -59.03050086 2.68929191 -29.48205566 1.04034424 C-28.19734375 0.96686768 -26.91263184 0.89339111 -25.58898926 0.81768799 C-17.06092234 0.34964636 -8.53858629 0.1387893 0 0 Z " fill="#090808" transform="translate(366.4820556640625,244.95965576171875)"/>
<path d="M0 0 C0.66 0.33 1.32 0.66 2 1 C2.56816102 11.83714547 2.56816102 11.83714547 -1 16 C-9.0959632 23.55623232 -16.29703521 25.18453388 -27 25 C-27.75 22.8125 -27.75 22.8125 -28 20 C-22.19520395 11.32811491 -9.54241354 3.99773245 0 0 Z " fill="#F6F6F3" transform="translate(299,197)"/>
<path d="M0 0 C2.0625 1.125 2.0625 1.125 3 3 C2.63308019 8.02176521 0.94791864 11.13453619 -1.875 15.25 C-2.57367188 16.28640625 -3.27234375 17.3228125 -3.9921875 18.390625 C-6 21 -6 21 -9 23 C-12.04519365 22.8096754 -14.24618495 22.45228903 -16.875 20.875 C-18.81980651 17.63365582 -18.59363895 15.73992541 -18 12 C-13.5225026 4.02408463 -9.60399991 -1.25790435 0 0 Z " fill="#0A090A" transform="translate(246,96)"/>
<path d="M0 0 C1.32 0.66 2.64 1.32 4 2 C1.69 5.96 -0.62 9.92 -3 14 C-4 12 -4 12 -3.22265625 9.1796875 C-2.83980469 8.08914062 -2.45695312 6.99859375 -2.0625 5.875 C-1.68222656 4.77929688 -1.30195312 3.68359375 -0.91015625 2.5546875 C-0.60980469 1.71164063 -0.30945313 0.86859375 0 0 Z " fill="#CBC7C4" transform="translate(74,134)"/>
<path d="M0 0 C0.99 0.66 1.98 1.32 3 2 C2.36934243 5.21852831 1.21979305 7.50801069 -0.5625 10.25 C-1.01753906 10.95640625 -1.47257812 11.6628125 -1.94140625 12.390625 C-2.29074219 12.92171875 -2.64007813 13.4528125 -3 14 C-4 12 -4 12 -3.22265625 9.1796875 C-2.83980469 8.08914062 -2.45695312 6.99859375 -2.0625 5.875 C-1.68222656 4.77929688 -1.30195313 3.68359375 -0.91015625 2.5546875 C-0.60980469 1.71164063 -0.30945313 0.86859375 0 0 Z " fill="#CECAC7" transform="translate(368,170)"/>
<path d="M0 0 C1.32 1.32 2.64 2.64 4 4 C3.34 5.32 2.68 6.64 2 8 C1.01 8 0.02 8 -1 8 C-1.125 2.25 -1.125 2.25 0 0 Z " fill="#EEEBE8" transform="translate(370,165)"/>
</svg>
